# xmcd CD database file
#
# Track frame offsets:
#	150
#	13135
#	29208
#	42544
#	57454
#	69252
#	84463
#	99161
#	113034
#	129944
#	143680
#	158878
#	174601
#	191411
#	205734
#	220170
#
# Disc length: 3104 seconds
#
# Revision: 2
# Processed by: cddbd v1.5.2PL0 Copyright (c) Steve Scherf et al.
# Submitted via: CDex 1.50beta10
#
DISCID=de0c1e10
DTITLE=Sam TaylorSaxphone 5 波麗唱片 - Saxphone 5 波麗唱片
DYEAR=2000
DGENRE=Jazz
TTITLE0=星夜的離別
TTITLE1=說聲對不起
TTITLE2=年輕人
TTITLE3=燃燒的好女人
TTITLE4=黃昏的港口
TTITLE5=哀怨的本線 日本海
TTITLE6=越前海角
TTITLE7=最好不要
TTITLE8=火山下的旅店
TTITLE9=熱情的男人
TTITLE10=別人的酒
TTITLE11=船歌
TTITLE12=永遠屬於妳
TTITLE13=奧飛驔慕情
TTITLE14=他人的船
TTITLE15=百花盛開的港都
EXTD=YEAR: 2000
EXTT0=
EXTT1=
EXTT2=
EXTT3=
EXTT4=
EXTT5=
EXTT6=
EXTT7=
EXTT8=
EXTT9=
EXTT10=
EXTT11=
EXTT12=
EXTT13=
EXTT14=
EXTT15=
PLAYORDER=
